<svg width="12" height="34" viewBox="0 0 12 34" fill="none" xmlns="http://www.w3.org/2000/svg">
<path d="M6.00001 0.333313C6.88406 0.333313 7.73191 0.684502 8.35703 1.30962C8.98215 1.93474 9.33334 2.78259 9.33334 3.66665C9.33334 4.5507 8.98215 5.39855 8.35703 6.02367C7.73191 6.64879 6.88406 6.99998 6.00001 6.99998C5.11595 6.99998 4.2681 6.64879 3.64298 6.02367C3.01786 5.39855 2.66667 4.5507 2.66667 3.66665C2.66667 2.78259 3.01786 1.93474 3.64298 1.30962C4.2681 0.684502 5.11595 0.333313 6.00001 0.333313ZM3.50001 8.66665H8.50001C9.38406 8.66665 10.2319 9.01784 10.857 9.64296C11.4821 10.2681 11.8333 11.1159 11.8333 12V21.1666H9.33334V33.6666H2.66667V21.1666H0.166672V12C0.166672 11.1159 0.517862 10.2681 1.14298 9.64296C1.7681 9.01784 2.61595 8.66665 3.50001 8.66665Z" fill="#557E87"/>
</svg>
