<svg width="31" height="48" viewBox="0 0 31 48" fill="none" xmlns="http://www.w3.org/2000/svg">
<path fill-rule="evenodd" clip-rule="evenodd" d="M15.3949 41.462L15.2689 41.56C12.4449 43.7598 8.37549 46.2378 5.72145 47.2013C4.57206 47.6186 3.29086 47.1048 2.87434 46.0596L0.6024 40.3585C0.200697 39.3505 0.255794 38.2239 0.755571 37.2266C1.25535 36.2293 2.15887 35.4429 3.26736 35.0405L7.44695 33.5232C8.55545 33.1207 9.77812 33.1352 10.846 33.5635C11.9139 33.9917 12.7395 34.7985 13.1412 35.8066L13.775 37.3972C17.3202 34.3539 20.1888 30.7064 22.2113 26.6703C24.2339 22.6343 25.3692 18.2917 25.5502 13.8994L23.801 14.5344C22.6925 14.9368 21.4699 14.9223 20.402 14.4941C19.3341 14.0659 18.5085 13.259 18.1068 12.251L16.5922 8.45026C16.1905 7.44225 16.2456 6.31566 16.7453 5.31833C17.2451 4.321 18.1486 3.53463 19.2571 3.13222L25.5265 0.856234C26.4669 0.514837 28.0328 1.14277 28.3736 1.99793C29.68 5.27606 30.0258 8.88112 30.0704 12.2584C30.1148 23.3667 24.7129 34.1464 15.3949 41.462Z" fill="#85B6FF"/>
</svg>
