<svg width="34" height="34" viewBox="0 0 34 34" fill="none" xmlns="http://www.w3.org/2000/svg">
<path d="M16.9059 0C7.60766 0 0 7.5 0 16.6667C0 25.8333 7.60766 33.3333 16.9059 33.3333C26.2041 33.3333 33.8118 25.8333 33.8118 16.6667C33.8118 7.5 26.2041 0 16.9059 0ZM16.9059 30C9.4504 30 3.38118 24.0167 3.38118 16.6667C3.38118 9.31667 9.4504 3.33333 16.9059 3.33333C24.3614 3.33333 30.4306 9.31667 30.4306 16.6667C30.4306 24.0167 24.3614 30 16.9059 30ZM17.7512 8.33333H15.2153V18.3333L24.0064 23.6667L25.3589 21.5L17.7512 17V8.33333Z" fill="#557E87"/>
</svg>
