<svg width="146" height="90" viewBox="0 0 146 90" fill="none" xmlns="http://www.w3.org/2000/svg">
<g clip-path="url(#clip0_302_2)">
<g filter="url(#filter0_i_302_2)">
<path d="M14.469 59.2959C13.2688 59.2959 12.0903 59.1428 10.9336 58.8367C9.77695 58.5306 8.82762 58.0918 8.08564 57.5204C7.36546 56.949 7.00537 56.2959 7.00537 55.5612V52.2857H7.59461C7.96563 54.3265 8.68581 55.8061 9.75515 56.7245C10.8245 57.6225 12.2976 58.0714 14.1744 58.0714C15.3529 58.0714 16.3568 57.7959 17.1861 57.2449C18.0372 56.6939 18.4628 55.9286 18.4628 54.949C18.4628 54.0918 18.1791 53.3469 17.6117 52.7143C17.0442 52.0816 16.1276 51.4183 14.8619 50.7245L10.8354 48.4898C9.43873 47.7142 8.44573 46.9286 7.85649 46.1326C7.28906 45.3367 7.00537 44.3673 7.00537 43.2245C7.00537 41.653 7.58368 40.3979 8.74035 39.4592C9.91882 38.5 11.4574 38.0204 13.356 38.0204C14.469 38.0204 15.5711 38.1735 16.6623 38.4796C17.7535 38.7653 18.6482 39.1939 19.3466 39.7653C20.0668 40.3163 20.4269 40.9592 20.4269 41.6939V44.9694H19.8377C19.4666 42.9286 18.7574 41.4694 17.7099 40.5918C16.6841 39.6938 15.2329 39.2449 13.356 39.2449C12.3522 39.2449 11.4683 39.5306 10.7045 40.102C9.94063 40.6734 9.55873 41.4184 9.55873 42.3367C9.55873 43.1735 9.83155 43.8673 10.3771 44.4184C10.9446 44.9694 11.8829 45.6122 13.1924 46.3469L17.2188 48.5816C18.7029 49.4184 19.7504 50.1938 20.3614 50.9081C20.9725 51.6225 21.278 52.5306 21.278 53.6326C21.278 55.3469 20.667 56.7245 19.4448 57.7653C18.2227 58.7857 16.5641 59.2959 14.469 59.2959ZM43.0538 58.9286C42.0062 58.9286 40.9696 58.6633 39.9439 58.1326C38.9182 57.5816 38.0998 56.5204 37.4887 54.949L36.6703 52.9592H27.5044L24.8856 58.7755H23.4125L32.5784 38.5714H33.5605L40.7623 54.949C41.3078 56.1326 41.8207 56.949 42.3008 57.3979C42.7809 57.8265 43.4684 58.0816 44.3632 58.1632V58.7755C43.9703 58.8776 43.5339 58.9286 43.0538 58.9286ZM36.0156 51.7347L32.0874 42.8571L27.9955 51.7347H36.0156ZM48.3819 58.7755H47.0725V42.2449C47.0725 41.2653 46.8433 40.5102 46.385 39.9796C45.9486 39.4489 45.1957 39.1837 44.1263 39.1837H43.7989V38.5714H45.9267C46.9307 38.5714 47.7818 38.7245 48.4801 39.0306C49.1785 39.3367 49.8005 39.7959 50.346 40.4081L61.8034 53.7245V38.5714H63.1129V59.0816H62.4581L48.3819 42.7041V58.7755ZM78.4518 59.3877C76.3128 59.3877 74.3926 58.8979 72.6903 57.9183C71.0097 56.9388 69.6898 55.6122 68.7293 53.9388C67.7911 52.2449 67.3217 50.3877 67.3217 48.3673C67.3217 46.4285 67.7361 44.6735 68.5657 43.102C69.3952 41.5102 70.5736 40.2551 72.1011 39.3367C73.6508 38.4184 75.4401 37.9592 77.4697 37.9592C79.3467 37.9592 80.9613 38.1938 82.3145 38.6632C83.6894 39.1122 84.6931 39.6938 85.3262 40.4081C85.6752 40.8163 85.8938 41.3571 85.9809 42.0306C86.0902 42.7041 86.1446 43.5408 86.1446 44.5408H85.4899C85.0754 42.7449 84.2898 41.4081 83.1329 40.5306C81.976 39.6326 80.4159 39.1837 78.4518 39.1837C76.684 39.1837 75.2109 39.6225 74.0325 40.5C72.854 41.3571 71.9813 42.4796 71.4136 43.8673C70.8683 45.2551 70.5953 46.7551 70.5953 48.3673C70.5953 51.8163 71.3154 54.3163 72.7558 55.8673C74.1961 57.3979 76.0948 58.1632 78.4518 58.1632C79.5648 58.1632 80.5141 58.0714 81.2997 57.8877C82.0854 57.7041 82.8272 57.4388 83.5257 57.0918V51.7653C83.5257 51.0714 83.6456 50.4693 83.8858 49.9592C84.1261 49.449 84.6388 49.0306 85.4244 48.7041C86.2317 48.3571 87.3997 48.1837 88.9271 48.1837V48.7959C87.945 48.7959 87.2903 49.0306 86.963 49.5C86.6356 49.9694 86.4719 50.7041 86.4719 51.7041V57.4592C85.2935 58.1326 84.0606 58.6224 82.7728 58.9286C81.485 59.2347 80.0447 59.3877 78.4518 59.3877ZM107.315 59.0816C106.159 59.0816 105.144 58.7653 104.271 58.1326C103.42 57.4796 102.47 56.3163 101.423 54.6428L98.1493 49.4388H95.8578V58.7755H92.9116V42.2449C92.9116 41.2041 92.7591 40.4388 92.4534 39.949C92.1483 39.4388 91.5368 39.1837 90.6202 39.1837H89.9655V38.5714H98.4767C100.55 38.5714 102.427 38.9591 104.107 39.7347C105.809 40.4898 106.661 41.9388 106.661 44.0816C106.661 46.7959 104.915 48.5306 101.423 49.2857L104.86 54.6428C105.668 55.9082 106.388 56.7959 107.021 57.3061C107.675 57.7959 108.428 58.0816 109.279 58.1632V58.7755C109.083 58.8571 108.799 58.9286 108.428 58.9898C108.079 59.051 107.708 59.0816 107.315 59.0816ZM98.313 48.3673C98.99 48.3673 99.7206 48.2143 100.506 47.9081C101.314 47.602 101.99 47.1225 102.536 46.4694C103.103 45.8163 103.387 45.0204 103.387 44.0816C103.387 43.0816 103.103 42.2551 102.536 41.602C101.99 40.9286 101.314 40.4388 100.506 40.1326C99.7206 39.8061 98.99 39.6428 98.313 39.6428C97.5496 39.6428 96.7312 39.7449 95.8578 39.949V48.0612C96.7312 48.2653 97.5496 48.3673 98.313 48.3673ZM114.77 58.7755C113.962 58.7755 113.352 58.6837 112.937 58.5C112.544 58.2959 112.26 57.9387 112.086 57.4286C111.911 56.9184 111.824 56.1428 111.824 55.102V38.5714H114.77V55.102C114.77 56.1428 114.923 56.9184 115.229 57.4286C115.534 57.9184 116.145 58.1632 117.062 58.1632H117.717V58.7755H114.77ZM138.383 58.9286C137.336 58.9286 136.299 58.6633 135.273 58.1326C134.247 57.5816 133.429 56.5204 132.818 54.949L132 52.9592H122.834L120.215 58.7755H118.742L127.908 38.5714H128.89L136.092 54.949C136.637 56.1326 137.15 56.949 137.63 57.3979C138.11 57.8265 138.798 58.0816 139.693 58.1632V58.7755C139.3 58.8776 138.863 58.9286 138.383 58.9286ZM131.345 51.7347L127.417 42.8571L123.325 51.7347H131.345Z" fill="#FFFDFD"/>
</g>
<path d="M31.4679 87.0857C30.8813 87.0857 30.4204 86.929 30.0852 86.6155C29.75 86.302 29.5824 85.822 29.5824 85.1755V80.6204H28.4825V80.0326H29.5824V78.7102L30.368 77.8286H30.9965V80.0326H32.8821V80.6204H30.9965V85.1755C30.9965 86.0571 31.3632 86.498 32.0964 86.498C32.3478 86.498 32.5574 86.4735 32.725 86.4245C32.903 86.3755 33.0864 86.302 33.2749 86.2041L33.432 86.498C33.1911 86.6645 32.924 86.8065 32.6307 86.9241C32.3374 87.0318 31.9498 87.0857 31.4679 87.0857ZM34.7188 81.7959C34.7188 81.2963 34.6455 80.929 34.4988 80.6939C34.3522 80.449 34.0589 80.3265 33.6189 80.3265H33.4618V80.0326H34.7188C35.1169 80.0326 35.4154 80.0865 35.6145 80.1943C35.824 80.2922 35.9706 80.4588 36.0544 80.6939H36.133C36.3215 80.4686 36.5729 80.2775 36.8872 80.1208C37.2119 79.9641 37.5891 79.8857 38.0185 79.8857C38.4376 79.8857 38.7518 79.9592 38.9613 80.1061C39.1394 80.2335 39.3227 80.4539 39.5113 80.7673L38.8828 81.2082C38.7675 81.0612 38.5999 80.9535 38.3799 80.8849C38.16 80.8065 37.9086 80.7673 37.6257 80.7673C37.3115 80.7673 37.0234 80.8359 36.7615 80.9731C36.4996 81.1004 36.2901 81.2767 36.133 81.502V86.9388H34.7188V81.7959ZM42.5982 87.0857C42.263 87.0857 41.9226 87.022 41.5769 86.8947C41.2312 86.7575 40.9327 86.5371 40.6812 86.2335C40.4403 85.9298 40.3198 85.5282 40.3198 85.0286C40.3198 84.2841 40.6865 83.7551 41.4198 83.4416C42.1635 83.1282 43.1325 82.9714 44.3267 82.9714H44.7981C44.7981 82.0114 44.6566 81.3551 44.3738 81.0024C44.091 80.6498 43.6824 80.4735 43.1482 80.4735C42.6768 80.4735 42.2997 80.5665 42.0168 80.7526C41.734 80.9388 41.535 81.262 41.4198 81.7224H40.7127C40.7127 81.3894 40.7336 81.1298 40.7755 80.9437C40.8174 80.7477 40.9274 80.5665 41.1055 80.4C41.2941 80.2237 41.6031 80.0963 42.0326 80.018C42.4725 79.9298 42.9492 79.8857 43.4624 79.8857C44.3109 79.8857 44.9814 80.1012 45.4737 80.5322C45.9661 80.9535 46.2122 81.7665 46.2122 82.9714V86.9388H45.4266L44.8766 86.2775H44.7981C44.6095 86.5029 44.3319 86.6939 43.9653 86.8506C43.5986 87.0073 43.1429 87.0857 42.5982 87.0857ZM43.3053 86.4245C43.651 86.4245 43.9391 86.3461 44.1695 86.1894C44.4 86.0326 44.6095 85.8171 44.7981 85.5429V83.5592H44.3267C43.5515 83.5592 42.9387 83.6963 42.4882 83.9706C42.0378 84.2351 41.8126 84.5878 41.8126 85.0286C41.8126 85.4792 41.954 85.8269 42.2368 86.0718C42.5301 86.3069 42.8863 86.4245 43.3053 86.4245ZM48.6742 81.7224C48.4228 81.1739 48.1818 80.7918 47.9514 80.5763C47.7209 80.351 47.4171 80.2286 47.04 80.209V79.9151C47.0923 79.9151 47.1657 79.9102 47.26 79.9004C47.3648 79.8906 47.4695 79.8857 47.5743 79.8857C48.1295 79.8857 48.6323 80.018 49.0827 80.2824C49.5332 80.5371 49.9208 81.0171 50.2455 81.7224L51.6597 84.8816L53.8595 80.0326H54.6451L51.424 87.0857H51.1097L48.6742 81.7224ZM58.8131 87.0857C58.1007 87.0857 57.4984 86.929 57.0061 86.6155C56.5137 86.2922 56.1419 85.8612 55.8905 85.3224C55.639 84.7739 55.5133 84.1616 55.5133 83.4857C55.5133 82.8196 55.639 82.2122 55.8905 81.6637C56.1419 81.1151 56.5033 80.6841 56.9747 80.3706C57.4565 80.0473 58.0169 79.8857 58.6559 79.8857C59.7139 79.8857 60.4996 80.1649 61.0129 80.7233C61.5367 81.2718 61.7985 82.0702 61.7985 83.1184L61.7671 83.7061H57.0061C57.0061 84.529 57.1946 85.2 57.5717 85.7192C57.9489 86.2384 58.4674 86.498 59.1273 86.498C59.6197 86.498 60.0335 86.4 60.3687 86.2041C60.7143 86.0082 61.0338 85.7143 61.3272 85.3224L61.6414 85.5429C61.2957 86.0816 60.8924 86.4735 60.4315 86.7184C59.9706 86.9633 59.4311 87.0857 58.8131 87.0857ZM60.3058 83.1184C60.3058 82.2563 60.1696 81.6 59.8973 81.1494C59.6249 80.6988 59.2111 80.4735 58.6559 80.4735C58.3417 80.4735 58.0588 80.591 57.8074 80.8261C57.556 81.0514 57.357 81.3649 57.2103 81.7665C57.0742 82.1682 57.0061 82.6188 57.0061 83.1184H60.3058ZM63.6728 79.0041C63.6728 78.5045 63.5995 78.1371 63.4529 77.902C63.3062 77.6571 63.0129 77.5347 62.5729 77.5347H62.2587V77.2408H63.6728C64.0604 77.2408 64.3485 77.2898 64.5371 77.3878C64.7361 77.4759 64.8775 77.6424 64.9613 77.8873C65.0451 78.1322 65.087 78.5045 65.087 79.0041V86.9388H63.6728V79.0041ZM73.1035 87.0857C72.7682 87.0857 72.4278 87.022 72.0821 86.8947C71.7364 86.7575 71.4379 86.5371 71.1865 86.2335C70.9455 85.9298 70.8251 85.5282 70.8251 85.0286C70.8251 84.2841 71.1917 83.7551 71.925 83.4416C72.6687 83.1282 73.6377 82.9714 74.8319 82.9714H75.3033C75.3033 82.0114 75.1619 81.3551 74.879 81.0024C74.5962 80.6498 74.1877 80.4735 73.6534 80.4735C73.182 80.4735 72.8049 80.5665 72.5221 80.7526C72.2392 80.9388 72.0402 81.262 71.925 81.7224H71.2179C71.2179 81.3894 71.2388 81.1298 71.2808 80.9437C71.3227 80.7477 71.4326 80.5665 71.6107 80.4C71.7993 80.2237 72.1083 80.0963 72.5378 80.018C72.9778 79.9298 73.4544 79.8857 73.9677 79.8857C74.8162 79.8857 75.4866 80.1012 75.9789 80.5322C76.4713 80.9535 76.7175 81.7665 76.7175 82.9714V86.9388H75.9318L75.3819 86.2775H75.3033C75.1147 86.5029 74.8371 86.6939 74.4705 86.8506C74.1039 87.0073 73.6482 87.0857 73.1035 87.0857ZM73.8105 86.4245C74.1562 86.4245 74.4443 86.3461 74.6748 86.1894C74.9052 86.0326 75.1147 85.8171 75.3033 85.5429V83.5592H74.8319C74.0567 83.5592 73.4439 83.6963 72.9935 83.9706C72.543 84.2351 72.3178 84.5878 72.3178 85.0286C72.3178 85.4792 72.4592 85.8269 72.7421 86.0718C73.0354 86.3069 73.3915 86.4245 73.8105 86.4245ZM81.6428 89.8775C80.5848 89.8775 79.7416 89.6963 79.113 89.3339C78.495 88.9714 78.186 88.3935 78.186 87.6C78.186 87.1494 78.3483 86.7575 78.6731 86.4245C78.9978 86.0914 79.4116 85.8465 79.9144 85.6898C79.4954 85.4743 79.2859 85.1804 79.2859 84.8082C79.2859 84.6122 79.333 84.4604 79.4273 84.3526C79.5216 84.2449 79.6577 84.1273 79.8358 84C79.5006 83.8433 79.2178 83.5984 78.9873 83.2653C78.7673 82.9322 78.6574 82.5404 78.6574 82.0898C78.6574 80.6204 79.6525 79.8857 81.6428 79.8857H84.5497V80.2531L83.5284 80.4V80.4735C83.8531 80.6302 84.115 80.8506 84.314 81.1347C84.5236 81.409 84.6283 81.7273 84.6283 82.0898C84.6283 83.5592 83.6331 84.2939 81.6428 84.2939C80.5429 84.2939 79.993 84.4653 79.993 84.8082C79.993 85.151 80.5429 85.3224 81.6428 85.3224C82.6589 85.3224 83.4865 85.5135 84.1255 85.8955C84.775 86.2678 85.0997 86.8359 85.0997 87.6C85.0997 88.3935 84.7854 88.9714 84.1569 89.3339C83.5389 89.6963 82.7008 89.8775 81.6428 89.8775ZM81.6428 83.7796C82.1142 83.7796 82.4913 83.6473 82.7742 83.3829C83.0675 83.1086 83.2141 82.6775 83.2141 82.0898C83.2141 81.5314 83.0675 81.1102 82.7742 80.8261C82.4913 80.542 82.1142 80.4 81.6428 80.4C81.1714 80.4 80.7891 80.5371 80.4958 80.8114C80.2129 81.0759 80.0715 81.502 80.0715 82.0898C80.0715 82.6775 80.2129 83.1086 80.4958 83.3829C80.7891 83.6473 81.1714 83.7796 81.6428 83.7796ZM81.6428 89.2898C82.2713 89.2898 82.7689 89.1477 83.1356 88.8637C83.5022 88.5894 83.6855 88.1682 83.6855 87.6C83.6855 86.6204 83.057 86.0571 81.8 85.9102L80.9357 85.8367C80.5063 85.9935 80.1763 86.2139 79.9458 86.498C79.7154 86.782 79.6001 87.1494 79.6001 87.6C79.6001 88.1682 79.7835 88.5894 80.1501 88.8637C80.5167 89.1477 81.0143 89.2898 81.6428 89.2898ZM89.5177 87.0857C88.8053 87.0857 88.203 86.929 87.7107 86.6155C87.2183 86.2922 86.8465 85.8612 86.595 85.3224C86.3436 84.7739 86.2179 84.1616 86.2179 83.4857C86.2179 82.8196 86.3436 82.2122 86.595 81.6637C86.8465 81.1151 87.2079 80.6841 87.6792 80.3706C88.1611 80.0473 88.7215 79.8857 89.3605 79.8857C90.4185 79.8857 91.2042 80.1649 91.7175 80.7233C92.2413 81.2718 92.5031 82.0702 92.5031 83.1184L92.4717 83.7061H87.7107C87.7107 84.529 87.8992 85.2 88.2763 85.7192C88.6534 86.2384 89.172 86.498 89.8319 86.498C90.3243 86.498 90.738 86.4 91.0732 86.2041C91.4189 86.0082 91.7384 85.7143 92.0317 85.3224L92.346 85.5429C92.0003 86.0816 91.597 86.4735 91.1361 86.7184C90.6752 86.9633 90.1357 87.0857 89.5177 87.0857ZM91.0104 83.1184C91.0104 82.2563 90.8742 81.6 90.6019 81.1494C90.3295 80.6988 89.9157 80.4735 89.3605 80.4735C89.0463 80.4735 88.7634 80.591 88.512 80.8261C88.2606 81.0514 88.0616 81.3649 87.9149 81.7665C87.7788 82.1682 87.7107 82.6188 87.7107 83.1184H91.0104ZM94.5504 81.7959C94.5504 81.2963 94.4771 80.929 94.3304 80.6939C94.1838 80.449 93.8905 80.3265 93.4505 80.3265H93.1362V80.0326H94.5504C94.938 80.0326 95.2313 80.0816 95.4303 80.1796C95.6398 80.2776 95.7917 80.4245 95.886 80.6204H95.9646C96.1846 80.4147 96.4674 80.2433 96.8131 80.1061C97.1692 79.9592 97.5673 79.8857 98.0073 79.8857C98.7929 79.8857 99.4319 80.0816 99.9243 80.4735C100.427 80.8653 100.678 81.551 100.678 82.5306V86.9388H99.2643V82.5306C99.2643 81.8449 99.0967 81.3453 98.7615 81.0318C98.4368 80.7086 98.0282 80.5469 97.5359 80.5469C96.9807 80.5469 96.4569 80.8065 95.9646 81.3257V86.9388H94.5504V81.7959ZM105.895 87.0857C105.14 87.0857 104.501 86.929 103.978 86.6155C103.464 86.2922 103.077 85.8612 102.815 85.3224C102.563 84.7739 102.438 84.1616 102.438 83.4857C102.438 82.8098 102.563 82.2024 102.815 81.6637C103.077 81.1151 103.464 80.6841 103.978 80.3706C104.501 80.0473 105.14 79.8857 105.895 79.8857C107.047 79.8857 107.806 80.0571 108.173 80.4C108.351 80.5665 108.461 80.7722 108.503 81.0171C108.545 81.2522 108.566 81.6833 108.566 82.3102H108.252C108.21 81.7029 108.005 81.2473 107.639 80.9437C107.272 80.6302 106.795 80.4735 106.209 80.4735C105.455 80.4735 104.884 80.7526 104.496 81.311C104.119 81.8694 103.93 82.5943 103.93 83.4857C103.93 84.3771 104.119 85.102 104.496 85.6604C104.884 86.2188 105.455 86.498 106.209 86.498C106.743 86.498 107.183 86.4049 107.529 86.2188C107.874 86.0229 108.194 85.7241 108.487 85.3224L108.801 85.5429C108.456 86.0914 108.047 86.4882 107.576 86.7331C107.104 86.9682 106.544 87.0857 105.895 87.0857ZM110.976 89.4367C111.489 89.4367 111.908 89.3241 112.233 89.0988C112.568 88.8833 112.856 88.4816 113.097 87.8939L113.411 87.0857L110.897 81.3551C110.604 80.6498 110.028 80.258 109.169 80.1796V79.8857H110.504C111.416 79.8857 112.044 80.2775 112.39 81.0612L114.181 85.1314L116.161 80.0326H116.947L113.883 87.8939C113.579 88.6677 113.244 89.1918 112.877 89.4661C112.51 89.7404 112.034 89.8775 111.447 89.8775H110.976V89.4367Z" fill="#FFFDFD"/>
<path d="M113.265 0C106.068 0 100.17 5.4265 100.17 12.0484C100.17 14.6145 101.059 16.9982 102.563 18.9588L111.667 31.411C112.942 32.9481 113.79 32.6567 114.85 31.3305L119.872 24.4809L124.894 17.6314C125.096 17.2926 125.255 16.9324 125.394 16.5638C126.014 15.1671 126.359 13.6433 126.359 12.0484C126.359 5.4265 120.463 0 113.265 0ZM113.265 4.21193C117.961 4.21193 121.776 7.99359 121.776 12.6487C121.776 17.3042 117.961 21.0856 113.265 21.0856C108.568 21.0856 104.753 17.3042 104.753 12.6487C104.753 7.99359 108.568 4.21193 113.265 4.21193ZM113.265 4.93847C113.064 4.93847 112.867 4.9482 112.67 4.96313C113.003 4.96799 113.335 4.98487 113.662 5.04749C113.672 5.39957 113.752 6.05764 113.058 6.03396C112.486 6.06608 111.944 7.35141 111.623 6.42337C111.661 5.94732 112.487 4.98811 111.488 5.33695C111.276 5.64132 111.332 6.20657 110.938 6.14008C110.798 6.64108 110.404 6.34188 110.325 6.12484C110.136 6.2348 110.466 6.51649 110.254 6.66674C110.867 6.25818 110.305 7.17814 110.655 7.41465C110.32 7.73302 110.918 8.54718 110.212 8.3411C109.562 8.23825 110.718 7.52725 109.922 7.86637C109.421 7.97798 109.448 8.26127 109.822 8.3359C109.486 8.64869 109.058 8.66559 108.859 8.52478C108.333 8.85539 107.855 9.25635 107.44 9.71633C106.823 9.74553 106.962 10.9848 106.665 10.8585C106.632 10.4786 106.764 9.86559 106.37 9.95418C105.948 9.81625 105.679 11.013 105.853 11.3173C106.386 10.6761 105.889 11.7798 106.018 11.9949C106.33 12.4648 105.813 13.3036 106.55 13.4652C106.811 12.9639 107.055 13.4194 107.113 13.3588C107.353 13.3166 107.523 13.9039 107.954 13.8247C108.453 13.7728 108.207 14.7456 108.889 14.8534C109.72 15.0918 109.634 16.1971 110.55 16.3343C111.091 16.6488 112.608 16.786 112.133 17.6496C111.423 17.9393 111.878 19.2201 110.833 18.9696C110.504 19.0637 110.445 19.4972 110.057 19.5576H109.824C110.893 20.0843 112.071 20.3587 113.265 20.3594C115.085 20.3594 116.754 19.7367 118.079 18.7009L118.119 18.5575L118.102 18.5601C118.736 18.0801 118.639 17.1615 119.128 16.5689C119.317 15.9226 118.65 15.4608 119.033 14.8634C118.7 14.903 118.113 14.51 117.745 15.0458C117.325 15.0513 116.917 15.529 116.527 15.2794C116.008 14.9744 115.413 14.6178 115.266 13.9944C115.329 13.5083 115.178 12.8853 115.225 12.4346C115.457 11.6548 116.082 11.1869 116.211 10.4162C116.265 10.3695 116.718 10.0187 116.736 10.0041C117.288 9.86265 118.039 8.98525 118.368 9.86461C118.481 9.94543 119.232 10.3205 119.164 10.0246C119.182 9.56186 120.426 9.813 119.787 9.20816C119.721 9.16923 119.469 9.09686 119.302 9.1429C119.234 9.15912 118.938 9.48269 118.686 9.0472C118.298 8.68898 118.665 10.0084 118.144 9.32657C118.68 9.15006 117.464 8.53225 117.751 8.89114C118.171 9.59914 117.387 9.13451 117.529 8.64643C116.851 8.56402 117.18 9.82598 116.544 10.0201C116.549 10.0207 116.553 10.0201 116.557 10.0207L116.446 10.0346L116.276 10.0506C116.118 9.89186 115.661 9.87208 115.796 9.41357C115.508 8.91808 115.794 8.72988 116.305 8.77659C116.82 8.44984 115.233 8.05782 116.252 7.88749C115.806 7.91572 115.619 7.93292 115.561 7.38741C115.633 8.06363 114.751 7.64149 115.224 7.23912C115.404 7.11906 114.81 6.87441 115.309 6.79102C115.643 6.77345 116.302 8.11494 116.422 7.3102C116.649 7.23784 116.211 6.80725 116.316 6.78453C115.724 6.97139 115.552 5.94213 115.548 5.55695C115.8 5.56668 116.052 5.53748 116.161 5.49108C115.24 5.12511 114.257 4.93752 113.265 4.93847ZM114.34 5.04555C114.488 5.03744 114.985 5.21104 114.634 5.25388L114.469 5.19839C114.279 5.09033 114.273 5.04912 114.34 5.04555ZM110.586 5.77891C110.543 5.78377 110.464 5.82109 110.339 5.91C110.182 5.97652 109.869 6.38798 110.237 6.08425C110.512 6.03882 110.714 5.76333 110.586 5.77891ZM116.222 5.97977C116.145 5.98561 116.395 6.18484 116.277 5.99047C116.259 5.98364 116.241 5.98 116.222 5.97977ZM109.734 6.07095C109.669 6.0664 109.573 6.09593 109.438 6.17412C108.999 6.2111 108.977 7.16902 108.989 7.11159C109.12 7.02563 109.234 6.76145 109.402 6.77706C109.717 6.74461 110.017 6.09139 109.734 6.07095ZM113.803 6.08879C114.12 6.07582 114.616 6.32663 113.928 6.41137C113.816 6.41069 113.694 6.39092 113.61 6.31078C113.551 6.15502 113.658 6.09464 113.803 6.08879ZM116.24 6.21404C116.107 6.20235 116.742 6.64531 116.475 6.3098C116.342 6.24355 116.27 6.21698 116.24 6.21404ZM114.914 6.45937C114.952 6.44314 115.022 6.65504 114.896 6.51453C114.899 6.47914 114.905 6.46329 114.914 6.45937ZM115.402 6.57551C115.432 6.58365 115.547 6.81827 115.411 6.66545C115.39 6.59535 115.392 6.57263 115.402 6.57551ZM116.781 6.57784C116.715 6.57814 116.72 6.64659 116.92 6.82249C116.979 7.08857 116.841 7.21708 117.14 6.97727C117.203 6.76861 116.892 6.57716 116.781 6.57784ZM108.047 7.54769C107.952 7.53667 108.035 7.96567 108.143 7.6402C108.1 7.57592 108.068 7.55033 108.047 7.54769ZM109.543 7.73725C109.483 7.73627 109.539 7.8761 109.644 7.79792C109.596 7.75347 109.563 7.73725 109.543 7.73725ZM118.712 7.79431C118.589 7.80827 118.984 8.62763 119.079 8.25447C119.58 8.17788 119.002 7.75537 118.89 7.93745C118.796 7.83037 118.741 7.79076 118.712 7.79431ZM108.059 7.94425C107.985 7.96047 107.941 8.406 108.092 7.96696C108.08 7.94816 108.069 7.94198 108.059 7.94425ZM117.823 8.39529C117.768 8.38623 117.809 8.44396 118.049 8.62182C118.124 8.59972 118.496 8.94239 118.409 8.74996C118.268 8.61043 117.913 8.41023 117.823 8.39529ZM107.872 8.39853C107.793 8.38298 107.638 8.65194 107.91 8.46472C107.906 8.42155 107.891 8.40208 107.872 8.39853ZM118.892 8.75614C118.851 8.77396 119.044 9.04396 119.029 8.84896C118.947 8.7717 118.907 8.75027 118.892 8.75614ZM117.237 9.12576C117.338 9.11014 117.278 9.56767 117.083 9.34182C117.153 9.18869 117.204 9.1309 117.237 9.12576ZM119.29 9.28665C119.399 9.27269 119.493 9.57869 119.19 9.43592C119.216 9.33116 119.254 9.29155 119.29 9.28665ZM113.401 9.73029C113.519 9.74063 113.497 9.92982 113.24 9.79843C113.307 9.74327 113.362 9.72704 113.401 9.73029ZM113.757 9.85065C113.805 9.86884 113.71 10.0389 113.653 9.90031C113.708 9.85488 113.741 9.84484 113.757 9.85065ZM115.036 10.6612C115.103 10.6453 115.073 10.8838 114.974 10.7216C115 10.6826 115.021 10.6651 115.036 10.6612ZM106.951 10.7303C106.996 10.73 107.093 11.0562 106.936 10.8705C106.927 10.7667 106.937 10.7307 106.951 10.7303ZM106.864 10.9932C106.908 11.001 106.886 11.4192 106.797 11.1632C106.827 11.0344 106.849 10.9909 106.864 10.9932ZM106.413 11.1285C106.458 11.1331 106.521 11.1496 106.606 11.1805C106.765 11.6237 107.199 11.7671 107.077 11.9625C107.39 12.0864 107.846 12.6744 107.108 12.4112C106.618 12.2156 107.278 12.0407 106.699 11.8856C106.676 11.6445 106.1 11.0964 106.413 11.1285ZM115.551 11.2509C115.625 11.2509 115.683 11.5445 115.467 11.4929C115.483 11.3118 115.518 11.2509 115.551 11.2509ZM107.009 11.3826C107.038 11.3647 107.11 11.4618 107.075 11.5828L107.039 11.5588C106.992 11.4452 106.992 11.3933 107.009 11.3826ZM115.001 11.3946C115.209 11.3829 115.58 11.5513 115.101 11.5669H114.94L114.912 11.5539C114.845 11.4426 114.906 11.3998 115.001 11.3946ZM105.567 11.5429C105.513 11.9091 105.487 12.2787 105.487 12.6487C105.487 15.0338 106.577 17.1625 108.289 18.5759L108.23 18.4497C108.151 18.2576 108.037 18.0808 107.938 17.899C107.533 17.1858 106.854 16.6615 106.562 15.8768C106.003 15.1681 106.458 14.4066 106.346 13.6673C106.313 13.276 106.215 13.901 106.084 13.4045C105.812 12.8526 105.783 12.0579 105.567 11.5429ZM106.573 11.977C106.667 11.9965 106.937 12.2938 106.626 12.187C106.525 12.017 106.531 11.9683 106.573 11.977ZM107.637 12.4271C107.753 12.4125 107.908 12.7224 107.554 12.5787C107.563 12.4729 107.598 12.432 107.637 12.4271ZM108.202 13.0096C108.25 13.0278 108.292 13.7322 108.166 13.3993L108.159 13.2835C108.17 13.0732 108.187 13.0034 108.202 13.0096ZM113.855 13.4785C113.944 13.4882 114.224 13.669 113.926 13.6102C113.815 13.5054 113.815 13.4739 113.855 13.4785ZM114.288 13.5768C114.368 13.5755 114.339 13.8173 114.215 13.6248C114.245 13.5904 114.27 13.5771 114.288 13.5768ZM114.217 13.7871C114.34 13.7676 114.243 14.0097 114.094 13.8513C114.148 13.8108 114.188 13.7916 114.217 13.7871ZM114.008 13.8176C114.054 13.8225 114.028 14.0395 113.94 13.9046C113.971 13.8377 113.993 13.816 114.008 13.8176ZM118.718 15.3057C118.763 15.3106 118.737 15.5276 118.649 15.3927C118.68 15.3258 118.703 15.3041 118.718 15.3057Z" fill="#557E87"/>
<path d="M0.648041 67.9592H145.352" stroke="#5A9E96"/>
</g>
<defs>
<filter id="filter0_i_302_2" x="7.00537" y="37.9592" width="132.687" height="25.4286" filterUnits="userSpaceOnUse" color-interpolation-filters="sRGB">
<feFlood flood-opacity="0" result="BackgroundImageFix"/>
<feBlend mode="normal" in="SourceGraphic" in2="BackgroundImageFix" result="shape"/>
<feColorMatrix in="SourceAlpha" type="matrix" values="0 0 0 0 0 0 0 0 0 0 0 0 0 0 0 0 0 0 127 0" result="hardAlpha"/>
<feOffset dy="4"/>
<feGaussianBlur stdDeviation="2"/>
<feComposite in2="hardAlpha" operator="arithmetic" k2="-1" k3="1"/>
<feColorMatrix type="matrix" values="0 0 0 0 0 0 0 0 0 0 0 0 0 0 0 0 0 0 0.25 0"/>
<feBlend mode="normal" in2="shape" result="effect1_innerShadow_302_2"/>
</filter>
<clipPath id="clip0_302_2">
<rect width="146" height="90" fill="white"/>
</clipPath>
</defs>
</svg>
