<svg width="40" height="40" viewBox="0 0 40 40" fill="none" xmlns="http://www.w3.org/2000/svg">
<path d="M37.5 36.375C37.5 37.6875 36.4375 38.75 35.0625 38.75H6.75C5.4375 38.75 4.3125 37.6875 4.3125 36.375V8.6875C4.3125 7.375 5.375 6.3125 6.75 6.3125H35.125C36.4375 6.3125 37.5625 7.375 37.5625 8.6875V36.375H37.5Z" fill="#93A2AA"/>
<path d="M35.6875 8.6875C35.6875 7.375 34.625 6.3125 33.25 6.3125H4.9375C3.625 6.3125 2.5 7.375 2.5 8.6875V22H35.6875V8.6875Z" fill="#ED4C5C"/>
<path d="M2.5 21.9375V36.375C2.5 37.6875 3.5625 38.75 4.9375 38.75H33.3125C34.625 38.75 35.75 37.6875 35.75 36.375V21.9375H2.5Z" fill="#D9E3E8"/>
<path d="M8.1875 12.375C9.18852 12.375 10 11.5915 10 10.625C10 9.6585 9.18852 8.875 8.1875 8.875C7.18648 8.875 6.375 9.6585 6.375 10.625C6.375 11.5915 7.18648 12.375 8.1875 12.375Z" fill="#3E4347"/>
<path d="M15.5 12.375C16.501 12.375 17.3125 11.5915 17.3125 10.625C17.3125 9.6585 16.501 8.875 15.5 8.875C14.499 8.875 13.6875 9.6585 13.6875 10.625C13.6875 11.5915 14.499 12.375 15.5 12.375Z" fill="#3E4347"/>
<path d="M22.6875 12.375C23.6885 12.375 24.5 11.5915 24.5 10.625C24.5 9.6585 23.6885 8.875 22.6875 8.875C21.6865 8.875 20.875 9.6585 20.875 10.625C20.875 11.5915 21.6865 12.375 22.6875 12.375Z" fill="#3E4347"/>
<path d="M29.9375 12.375C30.9385 12.375 31.75 11.5915 31.75 10.625C31.75 9.6585 30.9385 8.875 29.9375 8.875C28.9365 8.875 28.125 9.6585 28.125 10.625C28.125 11.5915 28.9365 12.375 29.9375 12.375Z" fill="#3E4347"/>
<path d="M25.375 2.87499C24.9375 2.12499 24.3125 1.31249 23.125 1.24999C22 1.18749 21.9375 2.56249 23.0625 2.62499C23.0625 2.62499 23.3125 2.81249 23.25 2.74999C23.5 2.99999 23.625 3.31249 23.8125 3.62499C24.1875 4.49999 24.3125 5.43749 24.3125 6.37499H26.125C26.0625 5.18749 25.875 3.93749 25.375 2.87499ZM23.0625 2.62499C23.125 2.62499 23.125 2.62499 23.0625 2.62499V2.62499ZM18.125 2.87499C17.75 2.12499 17.0625 1.31249 15.875 1.24999C14.75 1.18749 14.6875 2.56249 15.8125 2.62499C15.8125 2.62499 16.0625 2.81249 16 2.74999C16.25 2.99999 16.375 3.31249 16.5625 3.62499C16.9375 4.49999 17.0625 5.43749 17.0625 6.37499H18.875C18.8125 5.18749 18.6875 3.93749 18.125 2.87499ZM10.875 2.87499C10.5 2.12499 9.8125 1.31249 8.625 1.24999C7.5 1.18749 7.5 2.56249 8.625 2.62499C8.625 2.62499 8.875 2.81249 8.8125 2.74999C9.0625 2.99999 9.1875 3.31249 9.375 3.62499C9.75 4.49999 9.875 5.43749 9.875 6.37499H11.6875C11.625 5.18749 11.4375 3.93749 10.875 2.87499ZM32.5625 2.87499C32.1875 2.12499 31.5 1.31249 30.3125 1.24999C29.1875 1.18749 29.125 2.56249 30.25 2.62499C30.25 2.62499 30.5 2.81249 30.4375 2.74999C30.6875 2.99999 30.8125 3.31249 31 3.62499C31.375 4.49999 31.5 5.43749 31.5 6.37499H33.3125C33.3125 5.18749 33.125 3.93749 32.5625 2.87499Z" fill="#3E4347"/>
<path d="M22.6875 9.99999C22.5 9.99999 22.9375 10.0625 22.6875 9.99999C22.875 10.0625 22.4375 9.81249 22.5625 9.87499C22.3125 9.62499 22.1875 9.31249 22.0625 8.99999C21.6875 8.12499 21.5625 7.18749 21.5625 6.24999C21.5625 5.31249 21.6875 4.37499 22.0625 3.49999C22.1875 3.18749 22.3125 2.99999 22.5625 2.68749C22.625 2.62499 22.625 2.62499 22.8125 2.49999C22.625 2.62499 22.8125 2.49999 22.875 2.49999C22.75 2.56249 22.75 2.56249 22.8125 2.49999H22.75C23.9375 2.43749 23.9375 1.06249 22.75 1.12499C21.5625 1.18749 20.9375 1.99999 20.5 2.74999C19.9375 3.81249 19.8125 5.06249 19.8125 6.18749C19.8125 7.31249 20 8.56249 20.5 9.62499C20.875 10.375 21.5625 11.1875 22.75 11.25C23.875 11.4375 23.875 10.0625 22.6875 9.99999ZM15.5 9.99999C15.25 9.99999 15.6875 10.0625 15.5 9.99999C15.6875 10.0625 15.25 9.81249 15.375 9.87499C15.125 9.62499 15 9.31249 14.8125 8.99999C14.4375 8.12499 14.3125 7.18749 14.3125 6.24999C14.3125 5.31249 14.4375 4.37499 14.8125 3.49999C14.9375 3.18749 15.0625 2.99999 15.3125 2.68749C15.3125 2.62499 15.375 2.62499 15.5625 2.49999C15.375 2.62499 15.5625 2.49999 15.625 2.49999C15.5 2.56249 15.5 2.56249 15.5625 2.49999H15.5C16.6875 2.43749 16.6875 1.06249 15.5 1.12499C14.3125 1.18749 13.6875 1.99999 13.25 2.74999C12.6875 3.81249 12.5625 5.06249 12.5625 6.18749C12.5625 7.31249 12.75 8.56249 13.25 9.62499C13.625 10.375 14.3125 11.1875 15.5 11.25C16.625 11.4375 16.625 10.0625 15.5 9.99999ZM8.25 9.99999C8.0625 9.99999 8.4375 10.0625 8.25 9.99999C8.4375 10.0625 8 9.81249 8.125 9.87499C7.875 9.62499 7.75 9.31249 7.5625 8.99999C7.1875 8.12499 7.0625 7.18749 7.0625 6.24999C7.0625 5.31249 7.1875 4.37499 7.5625 3.49999C7.6875 3.18749 7.8125 2.99999 8.0625 2.68749C8.0625 2.62499 8.125 2.62499 8.3125 2.49999C8.125 2.62499 8.3125 2.49999 8.375 2.49999C8.25 2.56249 8.25 2.56249 8.3125 2.49999H8.25C9.4375 2.43749 9.4375 1.06249 8.25 1.12499C7.0625 1.18749 6.4375 1.99999 6 2.74999C5.4375 3.81249 5.3125 5.06249 5.3125 6.18749C5.3125 7.31249 5.5 8.56249 6 9.62499C6.375 10.375 7.0625 11.1875 8.25 11.25C9.4375 11.4375 9.4375 10.0625 8.25 9.99999ZM29.9375 9.99999C29.75 9.99999 30.125 10.0625 29.9375 9.99999C30.125 10.0625 29.6875 9.81249 29.8125 9.87499C29.5625 9.62499 29.4375 9.31249 29.25 8.99999C28.875 8.12499 28.75 7.18749 28.75 6.24999C28.75 5.31249 28.875 4.37499 29.25 3.49999C29.375 3.18749 29.5 2.99999 29.75 2.68749C29.75 2.62499 29.8125 2.62499 30 2.49999C29.8125 2.62499 30 2.49999 30.0625 2.49999C29.9375 2.56249 29.9375 2.56249 30 2.49999H29.9375C31.125 2.43749 31.125 1.06249 29.9375 1.12499C28.75 1.31249 28.125 2.12499 27.6875 2.87499C27.125 3.93749 27 5.18749 27 6.31249C27 7.43749 27.1875 8.68749 27.6875 9.74999C28.0625 10.5 28.75 11.3125 29.9375 11.375C31.125 11.4375 31.125 10.0625 29.9375 9.99999Z" fill="#94989B"/>
<path d="M20.9375 6.3125C20.9375 5.375 21.0625 4.375 21.4375 3.4375C21.625 3 22 2.125 22.6875 2.125C23.0625 2.125 23.0625 1.6875 22.6875 1.6875C21.8125 1.6875 21.375 2.4375 21.0625 2.9375C20.5 4 20.375 5.125 20.375 6.25C20.375 6.625 20.9375 6.625 20.9375 6.3125ZM13.6875 6.3125C13.6875 5.375 13.8125 4.375 14.1875 3.4375C14.375 3 14.75 2.125 15.4375 2.125C15.8125 2.125 15.8125 1.6875 15.4375 1.6875C14.5625 1.6875 14.125 2.4375 13.8125 2.9375C13.25 4 13.125 5.125 13.125 6.25C13.1875 6.625 13.6875 6.625 13.6875 6.3125ZM6.5 6.3125C6.5 5.375 6.625 4.375 7 3.4375C7.1875 3 7.5625 2.125 8.25 2.125C8.625 2.125 8.625 1.6875 8.25 1.6875C7.375 1.6875 6.9375 2.4375 6.625 2.9375C6.0625 4 5.9375 5.125 5.9375 6.25C5.9375 6.625 6.5 6.625 6.5 6.3125ZM28.1875 6.3125C28.1875 5.375 28.3125 4.375 28.6875 3.4375C28.875 3 29.25 2.125 29.9375 2.125C30.3125 2.125 30.3125 1.6875 29.9375 1.6875C29.0625 1.6875 28.625 2.4375 28.3125 2.9375C27.75 4 27.625 5.125 27.625 6.25C27.625 6.625 28.1875 6.625 28.1875 6.3125Z" fill="#D0D0D0"/>
<path d="M11.9375 17.75V17.875C11.9375 18.375 12 18.75 12.125 18.9375C12.1875 19.125 12.4375 19.25 12.75 19.25C13.0625 19.25 13.25 19.125 13.375 18.9375C13.4375 18.8125 13.4375 18.5625 13.4375 18.25V13.75H14.8125V18.1875C14.8125 18.75 14.6875 19.1875 14.5 19.5C14.1875 20.0625 13.625 20.3125 12.75 20.3125C11.875 20.3125 11.375 20.125 11.0625 19.6875C10.75 19.25 10.625 18.6875 10.625 17.875V17.75H11.9375ZM16.25 13.8125H17.625V17.75C17.625 18.1875 17.6875 18.5 17.8125 18.6875C18 19.0625 18.3125 19.25 18.875 19.25C19.4375 19.25 19.8125 19.0625 19.9375 18.6875C20.0625 18.5 20.125 18.1875 20.125 17.75V13.8125H21.5V17.75C21.5 18.4375 21.375 18.9375 21.1875 19.3125C20.75 20 20 20.375 18.875 20.375C17.75 20.375 16.9375 20 16.5625 19.3125C16.375 18.9375 16.25 18.375 16.25 17.75V13.8125ZM22.875 13.8125H24.25V19.0625H27.5625V20.1875H22.875V13.8125Z" fill="white"/>
<path d="M10.0625 27.8125V26.0625C10.875 26 11.375 26 11.6875 25.875C12.1875 25.75 12.5625 25.5625 12.875 25.1875C13.0625 24.9375 13.25 24.625 13.375 24.25C13.4375 24 13.5 23.875 13.5 23.75H15.5625V36.625H13V27.8125H10.0625ZM28.125 25.9375C27.75 26.3125 27.25 27 26.5625 27.9375C25.875 28.875 25.3125 29.875 24.875 30.875C24.5 31.6875 24.1875 32.625 23.9375 33.8125C23.625 34.9375 23.5 35.9375 23.5 36.6875H20.9375C21 34.375 21.75 32 23.1875 29.5C24.125 27.9375 24.875 26.875 25.5 26.25H19.1875L19.25 24H28.125V25.9375Z" fill="#333333"/>
</svg>
