<svg width="29" height="38" viewBox="0 0 29 38" fill="none" xmlns="http://www.w3.org/2000/svg">
<path d="M14.5007 0C6.53081 0 0 6.35481 0 14.1095C0 17.1146 0.98383 19.9061 2.64916 22.2021L12.731 36.7844C14.1433 38.5845 15.0814 38.2433 16.2559 36.6901L21.8167 28.6688L27.3774 20.6476C27.6022 20.2508 27.7777 19.829 27.9314 19.3974C28.6179 17.7618 29 15.9773 29 14.1095C29.0007 6.35481 22.4714 0 14.5007 0ZM14.5 4.93246C19.7011 4.93246 23.925 9.36105 23.925 14.8125C23.925 20.2645 19.7011 24.6927 14.5 24.6927C9.29957 24.6927 5.075 20.2645 5.075 14.8125C5.075 9.36105 9.29957 4.93246 14.5 4.93246ZM14.5 5.78328C14.2781 5.78328 14.0592 5.79468 13.8417 5.81216C14.2107 5.81786 14.5783 5.83762 14.9401 5.91096C14.9517 6.32327 15.0394 7.09392 14.2709 7.06618C13.638 7.1038 13.0377 8.60901 12.6817 7.52221C12.7238 6.96472 13.6387 5.84142 12.5331 6.24993C12.2975 6.60637 12.3598 7.26832 11.9241 7.19046C11.7689 7.77717 11.3317 7.42678 11.2447 7.17261C11.0352 7.30138 11.4006 7.63126 11.1664 7.80721C11.845 7.32877 11.2223 8.4061 11.6102 8.68307C11.2397 9.0559 11.9016 10.0093 11.12 9.76801C10.4001 9.64755 11.6805 8.81492 10.7989 9.21206C10.2443 9.34277 10.2733 9.67451 10.688 9.76191C10.316 10.1282 9.84187 10.148 9.62147 9.9831C9.03857 10.3703 8.51005 10.8398 8.0504 11.3785C7.36673 11.4127 7.52115 12.8639 7.192 12.7161C7.15575 12.2711 7.30147 11.5533 6.86502 11.657C6.3974 11.4955 6.10014 12.897 6.29299 13.2534C6.88314 12.5025 6.33288 13.7949 6.47571 14.0469C6.82081 14.5971 6.24805 15.5794 7.0644 15.7686C7.35368 15.1816 7.62338 15.7151 7.6879 15.644C7.95398 15.5946 8.14248 16.2824 8.61953 16.1897C9.17198 16.1289 8.89937 17.2681 9.6541 17.3943C10.5748 17.6736 10.4791 18.9679 11.4934 19.1286C12.093 19.4969 13.7728 19.6576 13.2465 20.6688C12.4606 21.0081 12.9644 22.508 11.8073 22.2147C11.4434 22.3249 11.3782 22.8326 10.9475 22.9032H10.6901C11.874 23.5201 13.1783 23.8414 14.5 23.8422C16.5155 23.8422 18.3642 23.113 19.8309 21.9L19.8752 21.7321L19.857 21.7351C20.5588 21.1731 20.4515 20.0973 20.9931 19.4034C21.2026 18.6465 20.4631 18.1057 20.8872 17.4061C20.5189 17.4525 19.8686 16.9922 19.4612 17.6197C18.9965 17.6261 18.5448 18.1855 18.1127 17.8933C17.5378 17.5361 16.8787 17.1184 16.7163 16.3885C16.7859 15.8192 16.6192 15.0896 16.6707 14.5617C16.928 13.6486 17.6204 13.1007 17.7632 12.1981C17.8227 12.1434 18.3236 11.7326 18.3447 11.7155C18.9551 11.5498 19.7867 10.5223 20.1514 11.5521C20.2761 11.6468 21.1077 12.086 21.033 11.7395C21.0533 11.1976 22.4308 11.4917 21.7232 10.7834C21.6499 10.7378 21.3708 10.653 21.186 10.707C21.1098 10.726 20.7829 11.1049 20.5037 10.5949C20.0738 10.1754 20.4805 11.7205 19.9034 10.9221C20.4972 10.7154 19.1502 9.99185 19.4677 10.4121C19.9332 11.2413 19.0646 10.6971 19.2219 10.1256C18.4715 10.0291 18.8362 11.5069 18.1315 11.7342C18.1366 11.7349 18.141 11.7342 18.146 11.7349L18.0235 11.7512L17.8343 11.7699C17.6603 11.584 17.1535 11.5609 17.3036 11.0239C16.9846 10.4437 17.3014 10.2233 17.8669 10.278C18.4368 9.89534 16.6801 9.43626 17.8082 9.2368C17.3145 9.26985 17.1071 9.29 17.0433 8.65117C17.1223 9.44307 16.1457 8.94871 16.6699 8.47751C16.8693 8.33691 16.2117 8.05041 16.7642 7.95275C17.1339 7.93218 17.8633 9.50315 17.9967 8.56075C18.2482 8.47601 17.7625 7.97175 17.8785 7.94515C17.2238 8.16398 17.0331 6.95864 17.0281 6.50757C17.3072 6.51897 17.5863 6.48477 17.7074 6.43043C16.688 6.00186 15.5991 5.78218 14.5 5.78328ZM15.6912 5.90868C15.8543 5.89918 16.4053 6.10249 16.016 6.15265L15.834 6.08767C15.6237 5.96112 15.6165 5.91286 15.6912 5.90868ZM11.5333 6.7675C11.4862 6.7732 11.3992 6.8169 11.26 6.92102C11.0867 6.99892 10.7402 7.48077 11.1469 7.12508C11.4521 7.07188 11.6754 6.74926 11.5333 6.7675ZM17.7748 7.00272C17.69 7.00956 17.9669 7.24287 17.8357 7.01526C17.8161 7.00725 17.7958 7.003 17.7748 7.00272ZM10.5908 7.1095C10.5183 7.10418 10.4125 7.13876 10.2631 7.23032C9.77663 7.27363 9.75198 8.39542 9.76575 8.32817C9.91003 8.2275 10.0369 7.91812 10.2232 7.93641C10.5712 7.89841 10.9033 7.13344 10.5908 7.1095ZM15.096 7.1304C15.4469 7.1152 15.9964 7.40892 15.2344 7.50815C15.1112 7.50737 14.9756 7.48421 14.8828 7.39035C14.8175 7.20795 14.9357 7.13724 15.096 7.1304ZM17.7944 7.27707C17.648 7.26338 18.3512 7.78211 18.0547 7.38921C17.9075 7.31163 17.8285 7.28051 17.7944 7.27707ZM16.327 7.56437C16.3691 7.54537 16.4466 7.79351 16.3067 7.62897C16.3096 7.58752 16.3169 7.56895 16.327 7.56437ZM16.8664 7.70038C16.9005 7.70991 17.0274 7.98466 16.8773 7.8057C16.8541 7.72361 16.8555 7.69701 16.8664 7.70038ZM18.394 7.7031C18.3208 7.70346 18.3266 7.78362 18.5484 7.98961C18.6137 8.30121 18.46 8.4517 18.7913 8.17086C18.8609 7.92651 18.5172 7.70231 18.394 7.7031ZM8.72175 8.83887C8.61662 8.82596 8.70943 9.32835 8.82833 8.94721C8.78048 8.87192 8.74567 8.84195 8.72175 8.83887ZM10.3784 9.06085C10.3124 9.0597 10.3748 9.22346 10.4908 9.1319C10.4371 9.07985 10.4009 9.06085 10.3784 9.06085ZM20.5327 9.12767C20.3964 9.14402 20.8336 10.1036 20.9387 9.66655C21.4933 9.57686 20.8532 9.08207 20.7299 9.2953C20.6255 9.1699 20.5639 9.12351 20.5327 9.12767ZM8.73552 9.30326C8.6536 9.32226 8.60502 9.84401 8.77177 9.32986C8.75872 9.30785 8.74712 9.30061 8.73552 9.30326ZM19.5475 9.83146C19.4873 9.82085 19.5322 9.88846 19.7983 10.0967C19.8817 10.0709 20.2935 10.4722 20.1971 10.2468C20.0405 10.0834 19.6475 9.84895 19.5475 9.83146ZM8.52891 9.83526C8.44118 9.81705 8.26935 10.132 8.57022 9.91277C8.56588 9.86222 8.54921 9.83942 8.52891 9.83526ZM20.7321 10.254C20.6864 10.2749 20.9003 10.5911 20.8836 10.3627C20.793 10.2723 20.748 10.2472 20.7321 10.254ZM18.8993 10.6869C19.0102 10.6686 18.9443 11.2044 18.7282 10.9399C18.8058 10.7606 18.8623 10.6929 18.8993 10.6869ZM21.1722 10.8753C21.2933 10.859 21.3969 11.2173 21.062 11.0501C21.0902 10.9274 21.1323 10.881 21.1722 10.8753ZM14.6515 11.3948C14.782 11.407 14.7574 11.6285 14.4732 11.4746C14.5471 11.41 14.608 11.391 14.6515 11.3948ZM15.0452 11.5358C15.0981 11.5571 14.993 11.7562 14.9306 11.5939C14.9908 11.5407 15.0271 11.529 15.0452 11.5358ZM16.4618 12.485C16.5358 12.4664 16.5024 12.7457 16.393 12.5557C16.422 12.5101 16.4444 12.4896 16.4618 12.485ZM7.50882 12.566C7.55812 12.5656 7.66615 12.9475 7.49215 12.7301C7.482 12.6085 7.49287 12.5664 7.50882 12.566ZM7.41168 12.8738C7.46098 12.8829 7.43632 13.3727 7.33845 13.0729C7.37107 12.9221 7.39573 12.8711 7.41168 12.8738ZM6.91288 13.0323C6.96218 13.0376 7.0325 13.0569 7.12675 13.0931C7.30293 13.6121 7.7836 13.7801 7.64802 14.0089C7.99457 14.154 8.4999 14.8426 7.6821 14.5344C7.13979 14.3053 7.87059 14.1004 7.22897 13.9188C7.20432 13.6365 6.56633 12.9946 6.91288 13.0323ZM17.0324 13.1755C17.1136 13.1755 17.1782 13.5194 16.9389 13.459C16.9563 13.2469 16.9954 13.1755 17.0324 13.1755ZM7.57335 13.3298C7.60452 13.3089 7.68428 13.4225 7.64585 13.5643L7.60597 13.5361C7.55377 13.4031 7.5545 13.3423 7.57335 13.3298ZM16.4227 13.3439C16.6532 13.3302 17.0636 13.5274 16.5336 13.5456H16.3553L16.3248 13.5304C16.2501 13.4001 16.3176 13.3499 16.4227 13.3439ZM5.97617 13.5175C5.91672 13.9464 5.887 14.3792 5.887 14.8125C5.887 17.6056 7.09412 20.0984 8.99 21.7537L8.92475 21.6059C8.83775 21.381 8.7116 21.1738 8.6014 20.961C8.15262 20.1258 7.4008 19.5117 7.07745 18.5928C6.4583 17.7629 6.96218 16.8711 6.83821 16.0054C6.80196 15.5471 6.69392 16.279 6.5482 15.6976C6.24732 15.0512 6.2147 14.1206 5.97617 13.5175ZM7.0905 14.0259C7.19417 14.0487 7.49287 14.3968 7.14922 14.2718C7.03684 14.0727 7.04337 14.0157 7.0905 14.0259ZM8.26791 14.553C8.39696 14.5359 8.56877 14.8988 8.17582 14.7305C8.18597 14.6066 8.22513 14.5587 8.26791 14.553ZM8.8943 15.2351C8.9465 15.2564 8.99362 16.0814 8.85442 15.6915L8.84645 15.5558C8.85805 15.3096 8.8769 15.2279 8.8943 15.2351ZM15.1539 15.7843C15.2518 15.7957 15.5621 16.0073 15.233 15.9385C15.1097 15.8157 15.1097 15.7789 15.1539 15.7843ZM15.6332 15.8993C15.7224 15.8978 15.6897 16.181 15.5527 15.9556C15.586 15.9153 15.6129 15.8998 15.6332 15.8993ZM15.5541 16.1456C15.6904 16.1228 15.5831 16.4063 15.4186 16.2208C15.4787 16.1734 15.523 16.1509 15.5541 16.1456ZM15.3236 16.1813C15.3736 16.1871 15.3454 16.4412 15.2475 16.2832C15.2823 16.2049 15.3062 16.1795 15.3236 16.1813ZM20.5385 17.924C20.5885 17.9298 20.5603 18.1839 20.4624 18.0259C20.4965 17.9476 20.5218 17.9222 20.5385 17.924Z" fill="#557E87"/>
</svg>
