<svg width="24" height="24" viewBox="0 0 24 24" fill="none" xmlns="http://www.w3.org/2000/svg">
<path d="M12.268 0.0748153C15.3856 0.0748153 15.0448 0.0174428 16.268 0.0748153C17.49 0.132188 18.5359 0.790248 19.268 1.07482C20.0253 1.36627 20.63 1.43798 21.268 2.07482C21.8514 2.64842 21.9799 3.30899 22.268 4.07482C22.5514 4.80574 23.2106 5.85278 23.268 7.07482C23.3219 8.298 23.268 8.95719 23.268 12.0748C23.268 15.1924 23.3253 14.8516 23.268 16.0748C23.2106 17.2969 22.5514 18.3427 22.268 19.0748C21.9807 19.8411 21.8521 20.5018 21.268 21.0748C20.6942 21.6581 20.0337 21.7865 19.268 22.0748C18.537 22.3582 17.49 23.0174 16.268 23.0748C15.0448 23.1287 15.3856 23.0748 12.268 23.0748C9.15034 23.0748 8.49114 23.1322 7.26796 23.0748C6.04592 23.0174 5.00003 22.3582 4.26796 22.0748C3.50183 21.7873 2.84114 21.6588 2.26796 21.0748C1.68437 20.5013 1.55589 19.8407 1.26796 19.0748C0.98339 18.3439 0.32533 17.2969 0.267957 16.0748C0.214027 14.8516 0.267957 15.1924 0.267957 12.0748C0.267957 8.95719 0.210585 8.298 0.267957 7.07482C0.32533 5.85163 0.98339 4.80689 1.26796 4.07482C1.55509 3.30852 1.68368 2.64776 2.26796 2.07482C2.8413 1.49103 3.50195 1.36251 4.26796 1.07482C5.00003 0.790248 6.04478 0.132188 7.26796 0.0748153C8.49114 0.0208851 9.15034 0.0748153 12.268 0.0748153ZM12.268 6.07482C10.7463 6.07482 8.3439 5.99887 7.26796 7.07482C6.19201 8.15076 6.26796 10.5532 6.26796 12.0748C6.26796 13.5964 6.19201 14.9989 7.26796 16.0748C8.3439 17.1508 10.7463 17.0748 12.268 17.0748C13.7896 17.0748 15.192 17.1508 16.268 16.0748C17.3439 14.9989 17.268 13.5964 17.268 12.0748C17.268 10.5532 17.3439 8.15076 16.268 7.07482C15.192 5.99887 13.7896 6.07482 12.268 6.07482ZM19.268 5.07482C19.268 4.69441 19.5369 4.3438 19.268 4.07482C18.999 3.80583 18.6484 4.07482 18.268 4.07482C17.8876 4.07482 17.5369 3.80583 17.268 4.07482C16.999 4.3438 16.268 4.69441 16.268 5.07482C16.268 5.45522 16.999 5.80583 17.268 6.07482C17.5369 6.3438 17.8876 7.07482 18.268 7.07482C18.6484 7.07482 18.999 6.3438 19.268 6.07482C19.5369 5.80583 19.268 5.45522 19.268 5.07482ZM12.268 8.07482C13.1809 8.07482 13.6224 8.42925 14.268 9.07482C14.9135 9.72038 15.268 11.1618 15.268 12.0748C15.268 12.9878 14.9135 13.4292 14.268 14.0748C13.6224 14.7204 13.1809 15.0748 12.268 15.0748C11.355 15.0748 9.91352 14.7204 9.26796 14.0748C8.62239 13.4292 8.26796 12.9878 8.26796 12.0748C8.26796 11.1618 8.62239 9.72038 9.26796 9.07482C9.91352 8.42925 11.355 8.07482 12.268 8.07482Z" fill="white"/>
</svg>
