<svg width="28" height="27" viewBox="0 0 28 27" fill="none" xmlns="http://www.w3.org/2000/svg">
<path d="M0.312927 0.331543V2.79773C0.312927 9.62084 3.23464 15.589 7.58415 18.9101V26.6375H27.4148V23.3493C27.4148 18.9759 20.3683 16.7728 16.8384 16.7728H16.5079C10.2282 16.7728 4.94007 10.1963 4.94007 2.79773V0.331543M16.8384 0.331543C15.4359 0.331543 14.0909 1.02442 13.0991 2.25775C12.1074 3.49108 11.5503 5.16384 11.5503 6.90804C11.5503 8.65223 12.1074 10.325 13.0991 11.5583C14.0909 12.7916 15.4359 13.4845 16.8384 13.4845C18.2409 13.4845 19.586 12.7916 20.5777 11.5583C21.5694 10.325 22.1266 8.65223 22.1266 6.90804C22.1266 5.16384 21.5694 3.49108 20.5777 2.25775C19.586 1.02442 18.2409 0.331543 16.8384 0.331543Z" fill="#85B6FF"/>
</svg>
