<svg width="29" height="29" viewBox="0 0 29 29" fill="none" xmlns="http://www.w3.org/2000/svg">
<g clip-path="url(#clip0_149_355)">
<rect width="28" height="28" transform="translate(0.26796 0.074707)" fill="#F18D30"/>
<path d="M26.268 6.07481C25.3691 6.46139 24.244 6.96202 23.268 7.07481C24.2967 6.4766 24.9003 5.18409 25.268 4.07481C24.3025 4.63345 23.3712 5.86303 22.268 6.07481C21.5269 5.30391 20.3387 4.24696 19.268 4.07481C18.1972 3.90267 17.2248 4.57689 16.268 5.07481C15.3111 5.57274 14.7145 6.1131 14.268 7.07481C13.8214 8.03653 14.0192 9.04772 14.268 10.0748C12.3101 9.9794 10.0164 8.93665 8.26796 8.07481C6.51948 7.21298 5.50437 6.55389 4.26796 5.07481C3.83031 5.80568 3.26673 6.2291 3.26796 7.07481C3.26796 8.7347 3.94692 10.2162 5.26796 11.0748C4.48618 11.0509 3.95159 11.4443 3.26796 11.0748C3.2682 12.1803 3.54801 13.2192 4.26796 14.0748C4.98791 14.9304 6.15353 14.8556 7.26796 15.0748C6.54223 15.266 6.00655 16.2118 5.26796 16.0748C5.58217 17.0264 5.4431 17.4785 6.26796 18.0748C7.09282 18.6711 8.24025 19.0563 9.26796 19.0748C8.24655 19.8548 7.5187 20.7346 6.26796 21.0748C5.01722 21.415 3.55736 21.2262 2.26796 21.0748C4.51878 22.4822 7.59186 23.0772 10.268 23.0748C19.3257 23.0748 24.268 15.4019 24.268 9.07481C24.268 8.86876 24.2774 9.27858 24.268 9.07481C25.2321 8.39731 25.607 7.03643 26.268 6.07481Z" fill="white"/>
</g>
<defs>
<clipPath id="clip0_149_355">
<rect width="28" height="28" fill="white" transform="translate(0.26796 0.074707)"/>
</clipPath>
</defs>
</svg>
